<!DOCTYPE svg PUBLIC "-//W3C//DTD SVG 1.1//EN" "http://www.w3.org/Graphics/SVG/1.1/DTD/svg11.dtd">
<svg width="106mm" height="22.08mm" viewBox="0 0 106 22.08" xmlns="http://www.w3.org/2000/svg" version="1.1" xmlns:xlink="http://www.w3.org/1999/xlink">
<title>Airfoil plot (e214-il) E214  (11.1%) by AirfoilTools.com</title>
<g transform="translate(3,12.332)"><g transform="scale(1,-1)"><line fill="none" stroke="green" stroke-width="0.05" x1="10" x2="10" y1="-5.25" y2="12.33"></line><line fill="none" stroke="green" stroke-width="0.05" x1="20" x2="20" y1="-5.25" y2="12.33"></line><line fill="none" stroke="green" stroke-width="0.05" x1="30" x2="30" y1="-5.25" y2="12.33"></line><line fill="none" stroke="green" stroke-width="0.05" x1="40" x2="40" y1="-5.25" y2="12.33"></line><line fill="none" stroke="green" stroke-width="0.05" x1="50" x2="50" y1="-5.25" y2="12.33"></line><line fill="none" stroke="green" stroke-width="0.05" x1="60" x2="60" y1="-5.25" y2="12.33"></line><line fill="none" stroke="green" stroke-width="0.05" x1="70" x2="70" y1="-5.25" y2="12.33"></line><line fill="none" stroke="green" stroke-width="0.05" x1="80" x2="80" y1="-5.25" y2="12.33"></line><line fill="none" stroke="green" stroke-width="0.05" x1="90" x2="90" y1="-5.25" y2="12.33"></line><line fill="none" stroke="green" stroke-width="0.05" x1="100" x2="100" y1="-5.25" y2="12.33"></line><line fill="none" stroke="green" stroke-width="0.05" x1="-3" x2="103" y1="10" y2="10"></line>
<path fill="none" stroke="red" stroke-width="0.1" d="M 100 0 L 99.67 0.1 L 98.74 0.42 L 97.31 0.92 L 95.43 1.5 L 93.08 2.14 L 90.28 2.83 L 87.07 3.58 L 83.51 4.34 L 79.63 5.11 L 75.46 5.84 L 71.04 6.54 L 66.43 7.21 L 61.68 7.81 L 56.85 8.34 L 51.99 8.78 L 47.14 9.09 L 42.35 9.28 L 37.65 9.33 L 33.08 9.24 L 28.67 9.01 L 24.47 8.64 L 20.51 8.14 L 16.82 7.53 L 13.42 6.82 L 10.37 6.03 L 7.67 5.17 L 5.35 4.26 L 3.43 3.32 L 1.93 2.38 L 0.86 1.47 L 0.21 0.62 L 0.01 -0.09 L 0.36 -0.63 L 1.33 -1.09 L 2.83 -1.48 L 4.86 -1.78 L 7.39 -2.01 L 10.41 -2.16 L 13.87 -2.24 L 17.76 -2.25 L 22.02 -2.19 L 26.6 -2.09 L 31.45 -1.93 L 36.51 -1.72 L 41.71 -1.45 L 47.03 -1.1 L 52.45 -0.68 L 57.93 -0.25 L 63.4 0.16 L 68.77 0.5 L 73.96 0.76 L 78.88 0.92 L 83.46 0.99 L 87.61 0.97 L 91.27 0.86 L 94.35 0.68 L 96.81 0.46 L 98.58 0.24 L 99.65 0.07 L 100 0 "></path>
<path fill="none" stroke="blue" stroke-width="0.1" d="M 0 0 L 100 0 "></path>
<line fill="none" stroke="black" stroke-width="0.1" x1="-3" x2="103" y1="0" y2="0"></line>
<line fill="none" stroke="black" stroke-width="0.1" x1="0" x2="0" y1="-5.25" y2="12.33"></line>
</g>
</g>
<g transform="translate(0,17.577)"><g transform="scale(1,1)"><text fill="rgb(48,48,144)" font-size="1.8" style="font-family:Arial,Helvetica,sans-serif;" x="1" y="2">Name = E214  (11.1%)</text><text fill="rgb(48,48,144)" font-size="1.8" style="font-family:Arial,Helvetica,sans-serif;" x="1" y="4">Chord = 100mm  Radius = 0mm  Thickness = 100%  Origin = 0%  Pitch = 0&#176; </text></g></g></svg>